<svg width="24" height="24" viewBox="0 0 24 24" fill="none" xmlns="http://www.w3.org/2000/svg">
  <path d="M19.14 12.94C19.18 12.63 19.2 12.32 19.2 12C19.2 11.68 19.18 11.37 19.14 11.06L21.16 9.48C21.34 9.34 21.39 9.08 21.27 8.87L19.36 5.55C19.24 5.34 18.98 5.26 18.77 5.34L16.39 6.3C15.9 5.92 15.37 5.61 14.8 5.38L14.44 2.85C14.4 2.62 14.2 2.45 13.97 2.45H10.03C9.8 2.45 9.6 2.62 9.56 2.85L9.2 5.38C8.63 5.61 8.1 5.92 7.61 6.3L5.23 5.34C5.02 5.26 4.76 5.34 4.64 5.55L2.73 8.87C2.61 9.08 2.66 9.34 2.84 9.48L4.86 11.06C4.82 11.37 4.8 11.68 4.8 12C4.8 12.32 4.82 12.63 4.86 12.94L2.84 14.52C2.66 14.66 2.61 14.92 2.73 15.13L4.64 18.45C4.76 18.66 5.02 18.74 5.23 18.66L7.61 17.7C8.1 18.08 8.63 18.39 9.2 18.62L9.56 21.15C9.6 21.38 9.8 21.55 10.03 21.55H13.97C14.2 21.55 14.4 21.38 14.44 21.15L14.8 18.62C15.37 18.39 15.9 18.08 16.39 17.7L18.77 18.66C18.98 18.74 19.24 18.66 19.36 18.45L21.27 15.13C21.39 14.92 21.34 14.66 21.16 14.52L19.14 12.94ZM12 15.6C10.01 15.6 8.4 13.99 8.4 12C8.4 10.01 10.01 8.4 12 8.4C13.99 8.4 15.6 10.01 15.6 12C15.6 13.99 13.99 15.6 12 15.6Z" fill="#35FF5A"/>
</svg>